<svg xmlns="http://www.w3.org/2000/svg" width="1024" height="1024" viewBox="0 0 1024 1024"><rect width="1024" height="1024" fill="#0b1120"/><circle cx="243.7" cy="557.3" r="1.23" fill="#e9eef7" opacity="0.56"/><circle cx="594.8" cy="620.1" r="1.64" fill="#e9eef7" opacity="0.27"/><circle cx="1019.5" cy="481.5" r="2.25" fill="#e9eef7" opacity="0.36"/><circle cx="154.2" cy="650.1" r="2.25" fill="#f5b642" opacity="0.33"/><circle cx="795.9" cy="163.2" r="2.25" fill="#e9eef7" opacity="0.17"/><circle cx="843.3" cy="275.9" r="2.25" fill="#e9eef7" opacity="0.47"/><circle cx="731.3" cy="943.2" r="1.64" fill="#e9eef7" opacity="0.48"/><circle cx="987.2" cy="137.4" r="1.23" fill="#e9eef7" opacity="0.19"/><circle cx="222.2" cy="988.7" r="1.64" fill="#e9eef7" opacity="0.50"/><circle cx="431.3" cy="853.5" r="2.25" fill="#e9eef7" opacity="0.31"/><circle cx="598.3" cy="925.9" r="0.82" fill="#e9eef7" opacity="0.54"/><circle cx="687.4" cy="167.0" r="1.23" fill="#e9eef7" opacity="0.58"/><circle cx="582.8" cy="730.9" r="1.02" fill="#e9eef7" opacity="0.43"/><circle cx="273.5" cy="127.4" r="1.64" fill="#e9eef7" opacity="0.53"/><circle cx="90.6" cy="819.8" r="1.64" fill="#f5b642" opacity="0.55"/><circle cx="437.4" cy="425.2" r="0.82" fill="#e9eef7" opacity="0.17"/><circle cx="46.0" cy="735.7" r="1.23" fill="#e9eef7" opacity="0.40"/><circle cx="285.8" cy="241.6" r="0.82" fill="#e9eef7" opacity="0.29"/><circle cx="614.2" cy="32.1" r="1.02" fill="#e9eef7" opacity="0.59"/><circle cx="269.7" cy="706.3" r="1.23" fill="#e9eef7" opacity="0.29"/><circle cx="918.2" cy="386.9" r="1.64" fill="#e9eef7" opacity="0.54"/><circle cx="887.6" cy="697.3" r="0.82" fill="#e9eef7" opacity="0.43"/><circle cx="519.2" cy="441.5" r="1.02" fill="#e9eef7" opacity="0.57"/><circle cx="264.4" cy="310.3" r="1.23" fill="#e9eef7" opacity="0.16"/><circle cx="593.9" cy="20.5" r="2.25" fill="#e9eef7" opacity="0.42"/><circle cx="648.7" cy="340.4" r="1.23" fill="#e9eef7" opacity="0.46"/><circle cx="723.9" cy="755.7" r="0.82" fill="#e9eef7" opacity="0.42"/><circle cx="21.8" cy="378.0" r="1.64" fill="#e9eef7" opacity="0.28"/><circle cx="181.7" cy="189.7" r="1.23" fill="#e9eef7" opacity="0.53"/><circle cx="806.2" cy="107.4" r="0.82" fill="#e9eef7" opacity="0.59"/><circle cx="134.6" cy="512.0" r="1.23" fill="#e9eef7" opacity="0.26"/><circle cx="445.7" cy="714.8" r="0.82" fill="#e9eef7" opacity="0.42"/><circle cx="691.1" cy="229.8" r="1.02" fill="#e9eef7" opacity="0.19"/><circle cx="223.3" cy="582.0" r="1.23" fill="#e9eef7" opacity="0.25"/><circle cx="542.3" cy="195.4" r="2.25" fill="#e9eef7" opacity="0.23"/><circle cx="826.6" cy="657.3" r="2.25" fill="#e9eef7" opacity="0.31"/><circle cx="298.9" cy="812.9" r="1.23" fill="#e9eef7" opacity="0.36"/><circle cx="297.4" cy="582.0" r="0.82" fill="#e9eef7" opacity="0.56"/><circle cx="4.8" cy="965.9" r="2.25" fill="#e9eef7" opacity="0.59"/><circle cx="973.0" cy="949.6" r="1.02" fill="#e9eef7" opacity="0.16"/><g transform="translate(85.3 119.5) scale(8.5333)"><path d="M62.31 16.17 A36 36 0 1 1 37.69 16.17" fill="none" stroke="#e9eef7" stroke-width="4.5" stroke-linecap="round"/><path d="M50 6 L45 45 L20 50 L45 55 L50 82Z" fill="#9cc0ff"/><path d="M50 6 L55 45 L80 50 L55 55 L50 82Z" fill="#4f8bff"/><path d="M80 73 L81.4 76.6 L85 78 L81.4 79.4 L80 83 L78.6 79.4 L75 78 L78.6 76.6Z" fill="#f5b642"/><circle cx="21" cy="78" r="2" fill="#e9eef7"/></g></svg>
